999
DXF file: L1600620_FLAT1.dxf
999
Pro/ENGINEER 2017380 by Parametric Technology Corporation
  0
SECTION
  2
HEADER
  9
$ACADVER
  1
AC1015
  9
$DWGCODEPAGE
  3
ANSI_1252
  9
$EXTMAX
 10
420.0
 20
297.0
 30
0.0
  9
$EXTMIN
 10
0.0
 20
0.0
 30
0.0
  9
$LIMMIN
 10
0.0
 20
0.0
  9
$LIMMAX
 10
420.0
 20
297.0
  9
$VIEWCTR
 10
210.0
 20
148.5
  9
$VIEWSIZE
 40
297.0
  9
$CLAYER
  8
0
  9
$LTSCALE
 40
23.1
  9
$CELTYPE
  6
BYLAYER
  9
$DIMSCALE
 40
1.0
  9
$DIMASZ
 40
3.5
  9
$DIMEXO
 40
1.0
  9
$DIMDLI
 40
15.96
  9
$DIMEXE
 40
1.5
  9
$DIMCEN
 40
3.78
  9
$DIMLFAC
 40
1.0
  9
$DIMBLK
  1
_FILLED
  9
$DIMALT
 70
0
  9
$DIMALTF
 40
25.4
  9
$DIMTXT
 40
3.5
  9
$DIMTOL
 70
1
  9
$DIMLIM
 70
0
  9
$DIMTFAC
 40
1.0
  9
$DIMTP
 40
0.01
  9
$DIMTM
 40
0.01
  9
$DIMGAP
 40
0.625
  9
$DIMDSEP
 70
44
  9
$AUNITS
 70
0
  9
$PDMODE
 70
0
  9
$PDSIZE
 40
1.0
  9
$HANDSEED
  5
239
  9
$TILEMODE
 70
1
  9
$MEASUREMENT
 70
1
  9
$INSUNITS
 70
4
  0
ENDSEC
  0
SECTION
  2
CLASSES
  0
CLASS
  1
ACDBDICTIONARYWDFLT
  2
AcDbDictionaryWithDefault
  3
AutoCAD 2000
 90
0
280
0
281
0
  0
CLASS
  1
ACDBPLACEHOLDER
  2
AcDbPlaceHolder
  3
AutoCAD 2000
 90
0
280
0
281
0
  0
CLASS
  1
LAYOUT
  2
AcDbLayout
  3
AutoCAD 2000
 90
0
280
0
281
0
  0
ENDSEC
  0
SECTION
  2
TABLES
  0
TABLE
  2
VPORT
  5
8
100
AcDbSymbolTable
 70
2
  0
VPORT
  5
1F4
100
AcDbSymbolTableRecord
100
AcDbViewportTableRecord
  2
*ACTIVE
 70
0
 10
0.0
 20
0.0
 11
1.0
 21
1.0
 12
210.0
 22
148.5
 13
0.0
 23
0.0
 14
1.0
 24
1.0
 15
0.0
 25
0.0
 16
0.0
 26
0.0
 36
1.0
 17
0.0
 27
0.0
 37
0.0
 40
297.0
 41
1.4141414141
 42
50.0
 43
0.0
 44
0.0
 50
0.0
 51
0.0
 71
0
 72
100
 73
1
 74
1
 75
0
 76
0
 77
0
 78
0
  0
ENDTAB
  0
TABLE
  2
LTYPE
  5
5
100
AcDbSymbolTable
 70
6
  0
LTYPE
  5
14
100
AcDbSymbolTableRecord
100
AcDbLinetypeTableRecord
  2
BYBLOCK
 70
0
  3

 72
65
 73
0
 40
0.0
  0
LTYPE
  5
15
100
AcDbSymbolTableRecord
100
AcDbLinetypeTableRecord
  2
BYLAYER
 70
0
  3

 72
65
 73
0
 40
0.0
  0
LTYPE
  5
16
100
AcDbSymbolTableRecord
100
AcDbLinetypeTableRecord
  2
CONTINUOUS
 70
64
  3
Solid line
 72
65
 73
0
 40
0.0
  0
LTYPE
  5
1F5
100
AcDbSymbolTableRecord
100
AcDbLinetypeTableRecord
  2
CENTER
 70
64
  3
____ _ ____ _ ____ _ ____ _ ____ _ ____ _ ____
 72
65
 73
4
 40
0.6
 49
0.375
 74
0
 49
-0.075
 74
0
 49
0.075
 74
0
 49
-0.075
 74
0
  0
LTYPE
  5
1F6
100
AcDbSymbolTableRecord
100
AcDbLinetypeTableRecord
  2
HIDDEN
 70
64
  3
- - - - - - - - - - - - - - - - - - - -
 72
65
 73
2
 40
0.2
 49
0.1
 74
0
 49
-0.1
 74
0
  0
LTYPE
  5
1F7
100
AcDbSymbolTableRecord
100
AcDbLinetypeTableRecord
  2
PHANTOM
 70
64
  3
_____ _ _ _____ _ _ _____ _ _ _____
 72
65
 73
6
 40
0.8
 49
0.45
 74
0
 49
-0.05
 74
0
 49
0.1
 74
0
 49
-0.05
 74
0
 49
0.1
 74
0
 49
-0.05
 74
0
  0
LTYPE
  5
1F8
100
AcDbSymbolTableRecord
100
AcDbLinetypeTableRecord
  2
DOT
 70
64
  3
. . . . . . . . . . . . . . . . . . . .
 72
65
 73
2
 40
0.2
 49
0.1
 74
0
 49
-0.1
 74
0
  0
LTYPE
  5
1F9
100
AcDbSymbolTableRecord
100
AcDbLinetypeTableRecord
  2
DASHED
 70
64
  3
- - - - - - - - - - - - - - - - - - - -
 72
65
 73
2
 40
0.2
 49
0.1
 74
0
 49
-0.1
 74
0
  0
ENDTAB
  0
TABLE
  2
LAYER
  5
2
100
AcDbSymbolTable
 70
36
  0
LAYER
  5
10
100
AcDbSymbolTableRecord
100
AcDbLayerTableRecord
  2
0
 70
0
 62
7
  6
CONTINUOUS
370
-3
390
F
  0
LAYER
  5
1FA
100
AcDbSymbolTableRecord
100
AcDbLayerTableRecord
  2
DEFAULT_1
 70
0
 62
7
  6
CENTER
370
-3
390
F
  0
LAYER
  5
1FB
100
AcDbSymbolTableRecord
100
AcDbLayerTableRecord
  2
DEFAULT_2
 70
0
 62
8
  6
HIDDEN
370
-3
390
F
  0
LAYER
  5
1FC
100
AcDbSymbolTableRecord
100
AcDbLayerTableRecord
  2
DEFAULT_3
 70
0
 62
7
  6
PHANTOM
370
-3
390
F
  0
LAYER
  5
1FD
100
AcDbSymbolTableRecord
100
AcDbLayerTableRecord
  2
AXES
 70
0
 62
7
  6
CONTINUOUS
370
-3
390
F
  0
LAYER
  5
1FE
100
AcDbSymbolTableRecord
100
AcDbLayerTableRecord
  2
COORD_SYS
 70
0
 62
7
  6
CONTINUOUS
370
-3
390
F
  0
LAYER
  5
1FF
100
AcDbSymbolTableRecord
100
AcDbLayerTableRecord
  2
NOTES
 70
0
 62
7
  6
CONTINUOUS
370
-3
390
F
  0
LAYER
  5
200
100
AcDbSymbolTableRecord
100
AcDbLayerTableRecord
  2
OVERALL_DIM
 70
0
 62
7
  6
CONTINUOUS
370
-3
390
F
  0
LAYER
  5
201
100
AcDbSymbolTableRecord
100
AcDbLayerTableRecord
  2
PLANS
 70
0
 62
7
  6
CONTINUOUS
370
-3
390
F
  0
LAYER
  5
202
100
AcDbSymbolTableRecord
100
AcDbLayerTableRecord
  2
SURFACES_COMP
 70
0
 62
7
  6
CONTINUOUS
370
-3
390
F
  0
ENDTAB
  0
TABLE
  2
STYLE
  5
3
100
AcDbSymbolTable
 70
1
  0
STYLE
  5
11
100
AcDbSymbolTableRecord
100
AcDbTextStyleTableRecord
  2
STANDARD
 70
0
 40
0.0
 41
0.85
 50
0.0
 71
0
 42
0.2
  3
txt
  4

  0
STYLE
  5
203
100
AcDbSymbolTableRecord
100
AcDbTextStyleTableRecord
  2
TEXTSTYLE_1
 70
0
 40
0.0
 41
0.8
 50
0.0
 71
0
 42
0.2
  3
gdt
  4

  0
STYLE
  5
204
100
AcDbSymbolTableRecord
100
AcDbTextStyleTableRecord
  2
TEXTSTYLE_2
 70
0
 40
0.0
 41
0.85
 50
0.0
 71
0
 42
0.2
  3
gdt
  4

  0
ENDTAB
  0
TABLE
  2
VIEW
  5
6
100
AcDbSymbolTable
 70
0
  0
ENDTAB
  0
TABLE
  2
UCS
  5
7
100
AcDbSymbolTable
 70
0
  0
ENDTAB
  0
TABLE
  2
APPID
  5
9
100
AcDbSymbolTable
 70
1
  0
APPID
  5
205
100
AcDbSymbolTableRecord
100
AcDbRegAppTableRecord
  2
ACAD
 70
0
  0
ENDTAB
  0
TABLE
  2
BLOCK_RECORD
  5
1
100
AcDbSymbolTable
 70
0
  0
BLOCK_RECORD
  5
206
100
AcDbSymbolTableRecord
100
AcDbBlockTableRecord
  2
*Model_Space
  0
BLOCK_RECORD
  5
207
100
AcDbSymbolTableRecord
100
AcDbBlockTableRecord
  2
*Paper_Space
  0
BLOCK_RECORD
  5
208
100
AcDbSymbolTableRecord
100
AcDbBlockTableRecord
  2
_FILLED
  0
ENDTAB
  0
TABLE
  2
DIMSTYLE
  5
A
100
AcDbSymbolTable
 70
1
100
AcDbDimStyleTable
 71
0
  0
DIMSTYLE
105
209
100
AcDbSymbolTableRecord
100
AcDbDimStyleTableRecord
  2
STANDARD
 70
0
  3

  4

 40
1.0
 41
3.5
 42
1.0
 43
0.38
 44
1.5
 45
0.0
 46
0.0
 47
0.01
 48
0.01
140
3.5
141
0.09
142
0.0
143
25.4
144
1.0
145
0.0
146
1.0
147
0.625
 71
1.0
 72
0.0
 73
0
 74
0
 75
0
 76
0
 77
1
 78
8
 79
2
170
0
171
1
172
0
173
0
174
0
175
0
176
0
177
0
178
5
270
2
179
2
271
2
272
2
273
2
274
2
275
0
280
0
281
0
282
0
283
1
284
8
285
0
286
0
287
3
288
0
340
11
278
44
341
208
342
208
343
208
344
208
  0
ENDTAB
  0
ENDSEC
  0
SECTION
  2
BLOCKS
  0
BLOCK
  5
20
100
AcDbEntity
  8
0
100
AcDbBlockBegin
  2
*Model_Space
 70
0
 10
0.0
 20
0.0
 30
0.0
  3
*Model_Space
  1

  0
ENDBLK
  5
21
100
AcDbEntity
  8
0
100
AcDbBlockEnd
  0
BLOCK
  5
1C
100
AcDbEntity
  8
0
100
AcDbBlockBegin
  2
*Paper_Space
 70
0
 10
0.0
 20
0.0
 30
0.0
  3
*Paper_Space
  1

  0
ENDBLK
  5
1D
100
AcDbEntity
  8
0
100
AcDbBlockEnd
  0
BLOCK
  5
20A
100
AcDbEntity
  8
0
100
AcDbBlockBegin
  2
_FILLED
 70
64
 10
0.0
 20
0.0
  3
_FILLED
  1

  0
SOLID
  5
20B
100
AcDbEntity
  8
0
  6
BYBLOCK
 62
0
100
AcDbTrace
 10
0.0
 20
0.0
 11
-1.0
 21
0.2142857143
 12
-1.0
 22
-0.2142857143
 13
-1.0
 23
-0.2142857143
  0
ENDBLK
  5
20C
100
AcDbEntity
  8
0
  6
BYBLOCK
 62
0
100
AcDbBlockEnd
  0
ENDSEC
  0
SECTION
  2
ENTITIES
  0
TEXT
  5
20D
100
AcDbEntity
  8
NOTES
100
AcDbText
 62
5
  6
CONTINUOUS
 10
0.0
 20
-1.75
  7
STANDARD
 40
3.5
  1
THICKNESS: 
 41
0.85
 72
0
100
AcDbText
  0
TEXT
  5
20E
100
AcDbEntity
  8
NOTES
100
AcDbText
 62
5
  6
CONTINUOUS
 10
32.725
 20
-1.75
  7
STANDARD
 40
3.5
  1
3
 41
0.85
 72
0
100
AcDbText
  0
TEXT
  5
20F
100
AcDbEntity
  8
NOTES
100
AcDbText
 62
5
  6
CONTINUOUS
 10
0.0
 20
-7.0
  7
STANDARD
 40
3.5
  1
UNITES: 
 41
0.85
 72
0
100
AcDbText
  0
TEXT
  5
210
100
AcDbEntity
  8
NOTES
100
AcDbText
 62
5
  6
CONTINUOUS
 10
23.8
 20
-7.0
  7
STANDARD
 40
3.5
  1
Millimeter / Kilogram
 41
0.85
 72
0
100
AcDbText
  0
TEXT
  5
211
100
AcDbEntity
  8
NOTES
100
AcDbText
 62
5
  6
CONTINUOUS
 10
0.0
 20
-12.25
  7
STANDARD
 40
3.5
  1
MATIERE: 
 41
0.85
 72
0
100
AcDbText
  0
TEXT
  5
212
100
AcDbEntity
  8
NOTES
100
AcDbText
 62
5
  6
CONTINUOUS
 10
26.775
 20
-12.25
  7
STANDARD
 40
3.5
  1
S355MC_DEC
 41
0.85
 72
0
100
AcDbText
  0
TEXT
  5
213
100
AcDbEntity
  8
NOTES
100
AcDbText
 62
5
  6
CONTINUOUS
 10
0.0
 20
-17.5
  7
STANDARD
 40
3.5
  1
RAYON: 
 41
0.85
 72
0
100
AcDbText
  0
TEXT
  5
214
100
AcDbEntity
  8
NOTES
100
AcDbText
 62
5
  6
CONTINUOUS
 10
20.825
 20
-17.5
  7
STANDARD
 40
3.5
  1
3
 41
0.85
 72
0
100
AcDbText
  0
TEXT
  5
215
100
AcDbEntity
  8
NOTES
100
AcDbText
 62
5
  6
CONTINUOUS
 10
172.2456936643
 20
-30.5871452323
  7
STANDARD
 40
3.5
  1
ECHELLE  
 41
0.85
 72
2
 11
199.0206936643
 21
-30.5871452323
100
AcDbText
  0
TEXT
  5
216
100
AcDbEntity
  8
NOTES
100
AcDbText
 62
5
  6
CONTINUOUS
 10
199.0206936643
 20
-30.5871452323
  7
STANDARD
 40
3.5
  1
1
 41
0.85
 72
2
 11
201.9956936643
 21
-30.5871452323
100
AcDbText
  0
TEXT
  5
217
100
AcDbEntity
  8
NOTES
100
AcDbText
 62
5
  6
CONTINUOUS
 10
214.5581936643
 20
102.5283642702
  7
STANDARD
 40
3.5
  1
DOWN
 41
0.85
 72
0
100
AcDbText
  0
TEXT
  5
218
100
AcDbEntity
  8
NOTES
100
AcDbText
 62
5
  6
CONTINUOUS
 10
226.4581936643
 20
102.5283642702
  7
STANDARD
 40
3.5
  1
20.00
 41
0.85
 72
0
100
AcDbText
  0
TEXT
  5
219
100
AcDbEntity
  8
NOTES
100
AcDbText
 62
5
  6
CONTINUOUS
 10
241.3331936643
 20
102.5283642702
  7
TEXTSTYLE_2
 40
3.5
  1
~
 41
1.0
 72
0
100
AcDbText
  0
TEXT
  5
21A
100
AcDbEntity
  8
NOTES
100
AcDbText
 62
5
  6
CONTINUOUS
 10
243.6665269976
 20
102.5283642702
  7
STANDARD
 40
3.5
  1
 R
 41
0.85
 72
0
100
AcDbText
  0
TEXT
  5
21B
100
AcDbEntity
  8
NOTES
100
AcDbText
 62
5
  6
CONTINUOUS
 10
249.6165269976
 20
102.5283642702
  7
STANDARD
 40
3.5
  1
4.00
 41
0.85
 72
0
100
AcDbText
  0
LEADER
  5
21C
100
AcDbEntity
  8
NOTES
100
AcDbLeader
 62
2
  6
CONTINUOUS
  3
STANDARD
 71
1
 72
0
 73
3
 75
0
 76
3
 10
201.9956936643
 20
106.9033642702
 30
0.0
 10
207.9956936643
 20
106.9033642702
 30
0.0
 10
261.5165269976
 20
106.9033642702
 30
0.0
1001
ACAD
1000
DSTYLE
1002
{
1070
77
1070
0
1002
}
  0
TEXT
  5
21D
100
AcDbEntity
  8
NOTES
100
AcDbText
 62
5
  6
CONTINUOUS
 10
214.5581936643
 20
223.1304269769
  7
STANDARD
 40
3.5
  1
DOWN
 41
0.85
 72
0
100
AcDbText
  0
TEXT
  5
21E
100
AcDbEntity
  8
NOTES
100
AcDbText
 62
5
  6
CONTINUOUS
 10
226.4581936643
 20
223.1304269769
  7
STANDARD
 40
3.5
  1
30.00
 41
0.85
 72
0
100
AcDbText
  0
TEXT
  5
21F
100
AcDbEntity
  8
NOTES
100
AcDbText
 62
5
  6
CONTINUOUS
 10
241.3331936643
 20
223.1304269769
  7
TEXTSTYLE_2
 40
3.5
  1
~
 41
1.0
 72
0
100
AcDbText
  0
TEXT
  5
220
100
AcDbEntity
  8
NOTES
100
AcDbText
 62
5
  6
CONTINUOUS
 10
243.6665269976
 20
223.1304269769
  7
STANDARD
 40
3.5
  1
 R
 41
0.85
 72
0
100
AcDbText
  0
TEXT
  5
221
100
AcDbEntity
  8
NOTES
100
AcDbText
 62
5
  6
CONTINUOUS
 10
249.6165269976
 20
223.1304269769
  7
STANDARD
 40
3.5
  1
4.00
 41
0.85
 72
0
100
AcDbText
  0
LEADER
  5
222
100
AcDbEntity
  8
NOTES
100
AcDbLeader
 62
2
  6
CONTINUOUS
  3
STANDARD
 71
1
 72
0
 73
3
 75
0
 76
3
 10
201.9956936643
 20
227.5054269769
 30
0.0
 10
207.9956936643
 20
227.5054269769
 30
0.0
 10
261.5165269976
 20
227.5054269769
 30
0.0
1001
ACAD
1000
DSTYLE
1002
{
1070
77
1070
0
1002
}
  0
LINE
  5
223
100
AcDbEntity
  8
AXES
100
AcDbLine
 62
3
  6
CONTINUOUS
 10
-368.0043063357
 20
228.8026245281
 11
-368.0043063357
 21
226.2082294257
  0
LINE
  5
224
100
AcDbEntity
  8
AXES
100
AcDbLine
 62
3
  6
CONTINUOUS
 10
-368.0043063357
 20
107.7681626377
 11
-368.0043063357
 21
106.0385659027
  0
LINE
  5
225
100
AcDbEntity
  8
0
100
AcDbLine
 62
3
  6
CONTINUOUS
 10
-368.0043063357
 20
-23.2371452323
 11
-368.0043063357
 21
106.0385659027
  0
LINE
  5
226
100
AcDbEntity
  8
0
100
AcDbLine
 62
3
  6
CONTINUOUS
 10
-368.0043063357
 20
107.7681626377
 11
-368.0043063357
 21
226.2082294257
  0
LINE
  5
227
100
AcDbEntity
  8
0
100
AcDbLine
 62
3
  6
CONTINUOUS
 10
-368.0043063357
 20
228.8026245281
 11
-368.0043063357
 21
323.0769801811
  0
LINE
  5
228
100
AcDbEntity
  8
0
100
AcDbLine
 62
3
  6
CONTINUOUS
 10
-368.0043063357
 20
-23.2371452323
 11
771.9956936643
 21
-23.2371452323
  0
LWPOLYLINE
  5
229
100
AcDbEntity
  8
NOTES
100
AcDbPolyline
 62
5
  6
CONTINUOUS
 90
3
 70
0
 43
0.3499999917
 10
213.3915307617
 20
226.3387609863
 10
207.9956945801
 20
223.1304162598
 10
213.3915307617
 20
223.1304162598
  0
LINE
  5
22A
100
AcDbEntity
  8
AXES
100
AcDbLine
 62
3
  6
PHANTOM
 10
-368.0043063357
 20
106.0385659027
 11
771.9956936643
 21
106.0385659027
  0
LINE
  5
22B
100
AcDbEntity
  8
AXES
100
AcDbLine
 62
7
  6
CENTER
 10
776.9956936643
 20
106.9033642702
 11
-373.0043063357
 21
106.9033642702
  0
LINE
  5
22C
100
AcDbEntity
  8
AXES
100
AcDbLine
 62
3
  6
PHANTOM
 10
-368.0043063357
 20
107.7681626377
 11
771.9956936643
 21
107.7681626377
  0
LWPOLYLINE
  5
22D
100
AcDbEntity
  8
NOTES
100
AcDbPolyline
 62
5
  6
CONTINUOUS
 90
3
 70
0
 43
0.3499999917
 10
213.3915307617
 20
105.7366992188
 10
207.9956945801
 20
102.5283673096
 10
213.3915307617
 20
102.5283673096
  0
LINE
  5
22E
100
AcDbEntity
  8
AXES
100
AcDbLine
 62
3
  6
PHANTOM
 10
-368.0043063357
 20
226.2082294257
 11
771.9956936643
 21
226.2082294257
  0
LINE
  5
22F
100
AcDbEntity
  8
AXES
100
AcDbLine
 62
7
  6
CENTER
 10
-373.0043063357
 20
227.5054269769
 11
776.9956936643
 21
227.5054269769
  0
LINE
  5
230
100
AcDbEntity
  8
AXES
100
AcDbLine
 62
3
  6
PHANTOM
 10
-368.0043063357
 20
228.8026245281
 11
771.9956936643
 21
228.8026245281
  0
LINE
  5
231
100
AcDbEntity
  8
0
100
AcDbLine
 62
3
  6
CONTINUOUS
 10
-368.0043063357
 20
323.0769801811
 11
771.9956936643
 21
323.0769801811
  0
LINE
  5
232
100
AcDbEntity
  8
AXES
100
AcDbLine
 62
3
  6
CONTINUOUS
 10
771.9956936643
 20
228.8026245281
 11
771.9956936643
 21
226.2082294257
  0
LINE
  5
233
100
AcDbEntity
  8
AXES
100
AcDbLine
 62
3
  6
CONTINUOUS
 10
771.9956936643
 20
107.7681626377
 11
771.9956936643
 21
106.0385659027
  0
LINE
  5
234
100
AcDbEntity
  8
0
100
AcDbLine
 62
3
  6
CONTINUOUS
 10
771.9956936643
 20
-23.2371452323
 11
771.9956936643
 21
106.0385659027
  0
LINE
  5
235
100
AcDbEntity
  8
0
100
AcDbLine
 62
3
  6
CONTINUOUS
 10
771.9956936643
 20
107.7681626377
 11
771.9956936643
 21
226.2082294257
  0
LINE
  5
236
100
AcDbEntity
  8
0
100
AcDbLine
 62
3
  6
CONTINUOUS
 10
771.9956936643
 20
228.8026245281
 11
771.9956936643
 21
323.0769801811
  0
ENDSEC
  0
SECTION
  2
OBJECTS
  0
DICTIONARY
  5
C
100
AcDbDictionary
280
0
281
1
  3
ACAD_GROUP
350
D
  3
ACAD_MLINESTYLE
350
17
  3
ACAD_LAYOUT
350
1A
  3
ACAD_PLOTSETTINGS
350
19
  3
ACAD_PLOTSTYLENAME
350
E
  0
DICTIONARY
  5
D
102
{ACAD_REACTORS
330
C
102
}
100
AcDbDictionary
280
0
281
1
  0
ACDBDICTIONARYWDFLT
  5
E
102
{ACAD_REACTORS
330
C
102
}
100
AcDbDictionary
281
1
  3
Normal
350
F
100
AcDbDictionaryWithDefault
340
F
  0
DICTIONARY
  5
17
102
{ACAD_REACTORS
330
C
102
}
100
AcDbDictionary
280
0
281
1
  3
Standard
350
18
  0
DICTIONARY
  5
19
102
{ACAD_REACTORS
330
C
102
}
100
AcDbDictionary
281
1
  0
DICTIONARY
  5
1A
102
{ACAD_REACTORS
330
C
102
}
100
AcDbDictionary
281
1
  3
Model
350
237
  3
Layout1
350
238
  0
ACDBPLACEHOLDER
  5
F
102
{ACAD_REACTORS
330
E
102
}
  0
MLINESTYLE
  5
18
102
{ACAD_REACTORS
330
17
102
}
100
AcDbMlineStyle
  2
STANDARD
 70
0
  3

 62
256
 51
90.0
 52
90.0
 71
2
 49
0.5
 62
256
  6
BYLAYER
 49
-0.5
 62
256
  6
BYLAYER
  0
LAYOUT
  5
237
102
{ACAD_REACTORS
330
1A
102
}
100
AcDbPlotSettings
  1

  2
none_device
  4
ISO_A3_(420.00_x_297.00_MM)
  6

 40
0.0
 41
0.0
 42
0.0
 43
0.0
 44
420.0
 45
297.0
 46
0.0
 47
0.0
 48
0.0
 49
0.0
140
0.0
141
0.0
142
1.0
143
1.0
 70
1024
 72
1
 73
0
 74
0
  7

 75
0
147
1.0
148
0.0
149
0.0
100
AcDbLayout
  1
Model
 70
0
 71
0
 10
0.0
 20
0.0
 11
420.0
 21
297.0
 12
0.0
 22
0.0
 32
0.0
 14
0.0
 24
0.0
 34
0.0
 15
0.0
 25
0.0
 35
0.0
146
0.0
 13
0.0
 23
0.0
 33
0.0
 16
1.0
 26
0.0
 36
0.0
 17
0.0
 27
1.0
 37
0.0
 76
0
330
206
345
0
346
0
  0
LAYOUT
  5
238
102
{ACAD_REACTORS
330
1A
102
}
100
AcDbPlotSettings
  1

  2
none_device
  4
ISO_A3_(420.00_x_297.00_MM)
  6

 40
0.0
 41
0.0
 42
0.0
 43
0.0
 44
420.0
 45
297.0
 46
0.0
 47
0.0
 48
0.0
 49
0.0
140
0.0
141
0.0
142
1.0
143
1.0
 70
0
 72
1
 73
0
 74
0
  7

 75
0
147
1.0
148
0.0
149
0.0
100
AcDbLayout
  1
Layout1
 70
0
 71
1
 10
0.0
 20
0.0
 11
420.0
 21
297.0
 12
0.0
 22
0.0
 32
0.0
 14
0.0
 24
0.0
 34
0.0
 15
0.0
 25
0.0
 35
0.0
146
0.0
 13
0.0
 23
0.0
 33
0.0
 16
1.0
 26
0.0
 36
0.0
 17
0.0
 27
1.0
 37
0.0
 76
0
330
207
345
0
346
0
  0
ENDSEC
  0
EOF
