999
DXF file: D:\\ptc\\Shared_Folder\\dxf\\\\k8035200_flat1.dxf
999
Pro/ENGINEER 2016240 by Parametric Technology Corporation
  0
SECTION
  2
HEADER
  9
$ACADVER
  1
AC1015
  9
$DWGCODEPAGE
  3
ANSI_1252
  9
$EXTMAX
 10
420.0
 20
297.0
 30
0.0
  9
$EXTMIN
 10
0.0
 20
0.0
 30
0.0
  9
$LIMMIN
 10
0.0
 20
0.0
  9
$LIMMAX
 10
420.0
 20
297.0
  9
$VIEWCTR
 10
210.0
 20
148.5
  9
$VIEWSIZE
 40
297.0
  9
$CLAYER
  8
0
  9
$LTSCALE
 40
23.1
  9
$CELTYPE
  6
BYLAYER
  9
$DIMSCALE
 40
1.0
  9
$DIMASZ
 40
3.5
  9
$DIMEXO
 40
1.0
  9
$DIMDLI
 40
15.96
  9
$DIMEXE
 40
1.5
  9
$DIMCEN
 40
3.78
  9
$DIMLFAC
 40
1.0
  9
$DIMBLK
  1
_FILLED
  9
$DIMALT
 70
0
  9
$DIMALTF
 40
25.4
  9
$DIMTXT
 40
3.5
  9
$DIMTOL
 70
1
  9
$DIMLIM
 70
0
  9
$DIMTFAC
 40
1.0
  9
$DIMTP
 40
0.01
  9
$DIMTM
 40
0.01
  9
$DIMGAP
 40
0.625
  9
$DIMDSEP
 70
44
  9
$AUNITS
 70
0
  9
$PDMODE
 70
0
  9
$PDSIZE
 40
1.0
  9
$HANDSEED
  5
241
  9
$TILEMODE
 70
1
  9
$MEASUREMENT
 70
1
  9
$INSUNITS
 70
4
  0
ENDSEC
  0
SECTION
  2
CLASSES
  0
CLASS
  1
ACDBDICTIONARYWDFLT
  2
AcDbDictionaryWithDefault
  3
AutoCAD 2000
 90
0
280
0
281
0
  0
CLASS
  1
ACDBPLACEHOLDER
  2
AcDbPlaceHolder
  3
AutoCAD 2000
 90
0
280
0
281
0
  0
CLASS
  1
LAYOUT
  2
AcDbLayout
  3
AutoCAD 2000
 90
0
280
0
281
0
  0
ENDSEC
  0
SECTION
  2
TABLES
  0
TABLE
  2
VPORT
  5
8
100
AcDbSymbolTable
 70
2
  0
VPORT
  5
1F4
100
AcDbSymbolTableRecord
100
AcDbViewportTableRecord
  2
*ACTIVE
 70
0
 10
0.0
 20
0.0
 11
1.0
 21
1.0
 12
210.0
 22
148.5
 13
0.0
 23
0.0
 14
1.0
 24
1.0
 15
0.0
 25
0.0
 16
0.0
 26
0.0
 36
1.0
 17
0.0
 27
0.0
 37
0.0
 40
297.0
 41
1.4141414141
 42
50.0
 43
0.0
 44
0.0
 50
0.0
 51
0.0
 71
0
 72
100
 73
1
 74
1
 75
0
 76
0
 77
0
 78
0
  0
ENDTAB
  0
TABLE
  2
LTYPE
  5
5
100
AcDbSymbolTable
 70
6
  0
LTYPE
  5
14
100
AcDbSymbolTableRecord
100
AcDbLinetypeTableRecord
  2
BYBLOCK
 70
0
  3

 72
65
 73
0
 40
0.0
  0
LTYPE
  5
15
100
AcDbSymbolTableRecord
100
AcDbLinetypeTableRecord
  2
BYLAYER
 70
0
  3

 72
65
 73
0
 40
0.0
  0
LTYPE
  5
16
100
AcDbSymbolTableRecord
100
AcDbLinetypeTableRecord
  2
CONTINUOUS
 70
64
  3
Solid line
 72
65
 73
0
 40
0.0
  0
LTYPE
  5
1F5
100
AcDbSymbolTableRecord
100
AcDbLinetypeTableRecord
  2
CENTER
 70
64
  3
____ _ ____ _ ____ _ ____ _ ____ _ ____ _ ____
 72
65
 73
4
 40
0.6
 49
0.375
 74
0
 49
-0.075
 74
0
 49
0.075
 74
0
 49
-0.075
 74
0
  0
LTYPE
  5
1F6
100
AcDbSymbolTableRecord
100
AcDbLinetypeTableRecord
  2
HIDDEN
 70
64
  3
- - - - - - - - - - - - - - - - - - - -
 72
65
 73
2
 40
0.2
 49
0.1
 74
0
 49
-0.1
 74
0
  0
LTYPE
  5
1F7
100
AcDbSymbolTableRecord
100
AcDbLinetypeTableRecord
  2
PHANTOM
 70
64
  3
_____ _ _ _____ _ _ _____ _ _ _____
 72
65
 73
6
 40
0.8
 49
0.45
 74
0
 49
-0.05
 74
0
 49
0.1
 74
0
 49
-0.05
 74
0
 49
0.1
 74
0
 49
-0.05
 74
0
  0
LTYPE
  5
1F8
100
AcDbSymbolTableRecord
100
AcDbLinetypeTableRecord
  2
DOT
 70
64
  3
. . . . . . . . . . . . . . . . . . . .
 72
65
 73
2
 40
0.2
 49
0.1
 74
0
 49
-0.1
 74
0
  0
LTYPE
  5
1F9
100
AcDbSymbolTableRecord
100
AcDbLinetypeTableRecord
  2
DASHED
 70
64
  3
- - - - - - - - - - - - - - - - - - - -
 72
65
 73
2
 40
0.2
 49
0.1
 74
0
 49
-0.1
 74
0
  0
ENDTAB
  0
TABLE
  2
LAYER
  5
2
100
AcDbSymbolTable
 70
36
  0
LAYER
  5
10
100
AcDbSymbolTableRecord
100
AcDbLayerTableRecord
  2
0
 70
0
 62
7
  6
CONTINUOUS
370
-3
390
F
  0
LAYER
  5
1FA
100
AcDbSymbolTableRecord
100
AcDbLayerTableRecord
  2
DEFAULT_1
 70
0
 62
7
  6
CENTER
370
-3
390
F
  0
LAYER
  5
1FB
100
AcDbSymbolTableRecord
100
AcDbLayerTableRecord
  2
DEFAULT_2
 70
0
 62
8
  6
HIDDEN
370
-3
390
F
  0
LAYER
  5
1FC
100
AcDbSymbolTableRecord
100
AcDbLayerTableRecord
  2
DEFAULT_3
 70
0
 62
7
  6
PHANTOM
370
-3
390
F
  0
LAYER
  5
1FD
100
AcDbSymbolTableRecord
100
AcDbLayerTableRecord
  2
AXES
 70
0
 62
7
  6
CONTINUOUS
370
-3
390
F
  0
LAYER
  5
1FE
100
AcDbSymbolTableRecord
100
AcDbLayerTableRecord
  2
COORD_SYS
 70
0
 62
7
  6
CONTINUOUS
370
-3
390
F
  0
LAYER
  5
1FF
100
AcDbSymbolTableRecord
100
AcDbLayerTableRecord
  2
COURBES_DXF
 70
0
 62
7
  6
CONTINUOUS
370
-3
390
F
  0
LAYER
  5
200
100
AcDbSymbolTableRecord
100
AcDbLayerTableRecord
  2
GEO_TOL
 70
0
 62
7
  6
CONTINUOUS
370
-3
390
F
  0
LAYER
  5
201
100
AcDbSymbolTableRecord
100
AcDbLayerTableRecord
  2
NOTES
 70
0
 62
7
  6
CONTINUOUS
370
-3
390
F
  0
LAYER
  5
202
100
AcDbSymbolTableRecord
100
AcDbLayerTableRecord
  2
OVERALL_DIM
 70
0
 62
7
  6
CONTINUOUS
370
-3
390
F
  0
LAYER
  5
203
100
AcDbSymbolTableRecord
100
AcDbLayerTableRecord
  2
PLANS
 70
0
 62
7
  6
CONTINUOUS
370
-3
390
F
  0
LAYER
  5
204
100
AcDbSymbolTableRecord
100
AcDbLayerTableRecord
  2
POINTS
 70
0
 62
7
  6
CONTINUOUS
370
-3
390
F
  0
LAYER
  5
205
100
AcDbSymbolTableRecord
100
AcDbLayerTableRecord
  2
REFERENCES_GEOM
 70
0
 62
7
  6
CONTINUOUS
370
-3
390
F
  0
LAYER
  5
206
100
AcDbSymbolTableRecord
100
AcDbLayerTableRecord
  2
SURFACES_COMP
 70
0
 62
7
  6
CONTINUOUS
370
-3
390
F
  0
ENDTAB
  0
TABLE
  2
STYLE
  5
3
100
AcDbSymbolTable
 70
1
  0
STYLE
  5
11
100
AcDbSymbolTableRecord
100
AcDbTextStyleTableRecord
  2
STANDARD
 70
0
 40
0.0
 41
0.85
 50
0.0
 71
0
 42
0.2
  3
txt
  4

  0
STYLE
  5
207
100
AcDbSymbolTableRecord
100
AcDbTextStyleTableRecord
  2
TEXTSTYLE_1
 70
0
 40
0.0
 41
0.8
 50
0.0
 71
0
 42
0.2
  3
gdt
  4

  0
ENDTAB
  0
TABLE
  2
VIEW
  5
6
100
AcDbSymbolTable
 70
0
  0
ENDTAB
  0
TABLE
  2
UCS
  5
7
100
AcDbSymbolTable
 70
0
  0
ENDTAB
  0
TABLE
  2
APPID
  5
9
100
AcDbSymbolTable
 70
1
  0
APPID
  5
208
100
AcDbSymbolTableRecord
100
AcDbRegAppTableRecord
  2
ACAD
 70
0
  0
ENDTAB
  0
TABLE
  2
BLOCK_RECORD
  5
1
100
AcDbSymbolTable
 70
0
  0
BLOCK_RECORD
  5
209
100
AcDbSymbolTableRecord
100
AcDbBlockTableRecord
  2
*Model_Space
  0
BLOCK_RECORD
  5
20A
100
AcDbSymbolTableRecord
100
AcDbBlockTableRecord
  2
*Paper_Space
  0
ENDTAB
  0
TABLE
  2
DIMSTYLE
  5
A
100
AcDbSymbolTable
 70
1
100
AcDbDimStyleTable
 71
0
  0
DIMSTYLE
105
20B
100
AcDbSymbolTableRecord
100
AcDbDimStyleTableRecord
  2
STANDARD
 70
0
  3

  4

 40
1.0
 41
3.5
 42
1.0
 43
0.38
 44
1.5
 45
0.0
 46
0.0
 47
0.01
 48
0.01
140
3.5
141
0.09
142
0.0
143
25.4
144
1.0
145
0.0
146
1.0
147
0.625
 71
1.0
 72
0.0
 73
0
 74
0
 75
0
 76
0
 77
1
 78
8
170
0
171
1
172
0
173
0
174
0
175
0
176
0
177
0
178
5
270
2
271
2
272
2
273
2
274
2
275
0
280
0
281
0
282
0
283
1
284
8
285
0
286
0
287
3
288
0
340
11
278
44
  0
ENDTAB
  0
ENDSEC
  0
SECTION
  2
BLOCKS
  0
BLOCK
  5
20
100
AcDbEntity
  8
0
100
AcDbBlockBegin
  2
*Model_Space
 70
0
 10
0.0
 20
0.0
 30
0.0
  3
*Model_Space
  1

  0
ENDBLK
  5
21
100
AcDbEntity
  8
0
100
AcDbBlockEnd
  0
BLOCK
  5
1C
100
AcDbEntity
  8
0
100
AcDbBlockBegin
  2
*Paper_Space
 70
0
 10
0.0
 20
0.0
 30
0.0
  3
*Paper_Space
  1

  0
ENDBLK
  5
1D
100
AcDbEntity
  8
0
100
AcDbBlockEnd
  0
ENDSEC
  0
SECTION
  2
ENTITIES
  0
MTEXT
  5
20C
100
AcDbEntity
  8
0
100
AcDbMText
 62
5
  6
CONTINUOUS
  7
STANDARD
 71
3
 72
1
 10
201.9956936643
 20
25.7746053991
 30
0.0
 11
1.0
 21
0.0
 31
0.0
 44
0.9
  1

 40
3.5
 41
26.775
  0
LINE
  5
20D
100
AcDbEntity
  8
0
100
AcDbLine
 62
3
  6
CONTINUOUS
 10
-70.8400038184
 20
260.2706522021
 11
-70.8400038184
 21
218.2726954516
  0
LINE
  5
20E
100
AcDbEntity
  8
0
100
AcDbLine
 62
3
  6
CONTINUOUS
 10
-70.8400038184
 20
215.6598941546
 11
-70.8400038184
 21
113.9863894605
  0
LINE
  5
20F
100
AcDbEntity
  8
0
100
AcDbLine
 62
3
  6
CONTINUOUS
 10
-70.8400038184
 20
112.4540700242
 11
-70.8400038184
 21
90.9709633923
  0
LINE
  5
210
100
AcDbEntity
  8
0
100
AcDbLine
 62
3
  6
CONTINUOUS
 10
-70.8400038184
 20
30.6246053991
 11
-70.8400038184
 21
89.4397514193
  0
LINE
  5
211
100
AcDbEntity
  8
AXES
100
AcDbLine
 62
3
  6
CONTINUOUS
 10
-70.8400038184
 20
89.4397514193
 11
-70.8400038184
 21
90.9709633923
  0
LINE
  5
212
100
AcDbEntity
  8
AXES
100
AcDbLine
 62
3
  6
CONTINUOUS
 10
-70.8400038184
 20
112.4540700242
 11
-70.8400038184
 21
113.9863894605
  0
LINE
  5
213
100
AcDbEntity
  8
AXES
100
AcDbLine
 62
3
  6
CONTINUOUS
 10
-70.8400038184
 20
215.6598941546
 11
-70.8400038184
 21
218.2726954516
  0
LINE
  5
214
100
AcDbEntity
  8
0
100
AcDbLine
 62
3
  6
CONTINUOUS
 10
435.3355912161
 20
29.6246053991
 11
-69.8400038184
 21
29.6246053991
  0
LINE
  5
215
100
AcDbEntity
  8
AXES
100
AcDbLine
 62
3
  6
CONTINUOUS
 10
388.1599961816
 20
54.0219971716
 11
384.1599961816
 21
54.0219971716
  0
LINE
  5
216
100
AcDbEntity
  8
AXES
100
AcDbLine
 62
3
  6
CONTINUOUS
 10
170.6599961816
 20
54.0219971716
 11
166.6599961816
 21
54.0219971716
  0
LINE
  5
217
100
AcDbEntity
  8
AXES
100
AcDbLine
 62
3
  6
CONTINUOUS
 10
-46.8400038184
 20
54.0219971716
 11
-50.8400038184
 21
54.0219971716
  0
LINE
  5
218
100
AcDbEntity
  8
AXES
100
AcDbLine
 62
3
  6
CONTINUOUS
 10
-50.8400038184
 20
65.0219971716
 11
-46.8400038184
 21
65.0219971716
  0
LINE
  5
219
100
AcDbEntity
  8
AXES
100
AcDbLine
 62
3
  6
CONTINUOUS
 10
166.6599961816
 20
65.0219971716
 11
170.6599961816
 21
65.0219971716
  0
LINE
  5
21A
100
AcDbEntity
  8
AXES
100
AcDbLine
 62
3
  6
CONTINUOUS
 10
384.1599961816
 20
65.0219971716
 11
388.1599961816
 21
65.0219971716
  0
LINE
  5
21B
100
AcDbEntity
  8
AXES
100
AcDbLine
 62
3
  6
CONTINUOUS
 10
425.2032893607
 20
112.6492618809
 11
423.4023165867
 21
113.0053845694
  0
LINE
  5
21C
100
AcDbEntity
  8
AXES
100
AcDbLine
 62
3
  6
CONTINUOUS
 10
369.8398596787
 20
216.3582597746
 11
370.9703862969
 21
217.5169142838
  0
LINE
  5
21D
100
AcDbEntity
  8
AXES
100
AcDbLine
 62
3
  6
CONTINUOUS
 10
424.1296137788
 20
114.832306697
 11
429.695826906
 21
111.3230503112
  0
LINE
  5
21E
100
AcDbEntity
  8
0
100
AcDbLine
 62
3
  6
CONTINUOUS
 10
429.695826906
 20
111.3230503112
 11
448.4404477103
 21
99.3835384383
  0
LINE
  5
21F
100
AcDbEntity
  8
AXES
100
AcDbLine
 62
3
  6
CONTINUOUS
 10
373.4867226207
 20
219.0700590686
 11
371.4399307373
 21
215.1930315458
  0
LINE
  5
220
100
AcDbEntity
  8
0
100
AcDbLine
 62
3
  6
CONTINUOUS
 10
-62.3823640042
 20
270.2152295496
 11
356.1607872892
 21
270.2152295496
  0
LINE
  5
221
100
AcDbEntity
  8
0
100
AcDbLine
 62
3
  6
CONTINUOUS
 10
394.7158201219
 20
263.5589980702
 11
373.4867226207
 21
219.0700590686
  0
LINE
  5
222
100
AcDbEntity
  8
0
100
AcDbLine
 62
3
  6
CONTINUOUS
 10
474.2977953862
 20
112.3079932639
 11
449.4402016892
 21
99.3403657399
  0
LINE
  5
223
100
AcDbEntity
  8
0
100
AcDbLine
 62
3
  6
CONTINUOUS
 10
371.4996565236
 20
219.3079159418
 11
371.1716034285
 21
220.9393621183
  0
LINE
  5
224
100
AcDbEntity
  8
0
100
AcDbLine
 62
3
  6
CONTINUOUS
 10
426.6220045639
 20
111.5451000104
 11
429.1123753286
 21
106.3002238704
  0
LINE
  5
225
100
AcDbEntity
  8
0
100
AcDbLine
 62
3
  6
CONTINUOUS
 10
429.1123753286
 20
106.3002238704
 11
435.8173402307
 21
90.9709633923
  0
LINE
  5
226
100
AcDbEntity
  8
0
100
AcDbLine
 62
3
  6
CONTINUOUS
 10
357.1213770817
 20
269.4931994231
 11
371.1716034285
 21
220.9393621183
  0
LINE
  5
227
100
AcDbEntity
  8
AXES
100
AcDbLine
 62
3
  6
CONTINUOUS
 10
436.3355912161
 20
89.4397514193
 11
435.8173402307
 21
90.9709633923
  0
LINE
  5
228
100
AcDbEntity
  8
0
100
AcDbLine
 62
3
  6
CONTINUOUS
 10
436.3355912161
 20
89.4397514193
 11
436.3355912161
 21
30.6246053991
  0
LINE
  5
229
100
AcDbEntity
  8
0
100
AcDbLine
 62
3
  6
CONTINUOUS
 10
396.5049422922
 20
263.5908613677
 11
474.7218804297
 21
113.657123308
  0
ARC
  5
22A
100
AcDbEntity
  8
AXES
100
AcDbCircle
 62
3
  6
CONTINUOUS
 10
-50.8400038184
 20
59.5219971716
 40
5.5
100
AcDbArc
 50
90.0
 51
270.0
  0
ARC
  5
22B
100
AcDbEntity
  8
AXES
100
AcDbCircle
 62
3
  6
CONTINUOUS
 10
-46.8400038184
 20
59.5219971716
 40
5.5
100
AcDbArc
 50
270.0
 51
90.0
  0
ARC
  5
22C
100
AcDbEntity
  8
AXES
100
AcDbCircle
 62
3
  6
CONTINUOUS
 10
166.6599961816
 20
59.5219971716
 40
5.5
100
AcDbArc
 50
90.0
 51
270.0
  0
ARC
  5
22D
100
AcDbEntity
  8
AXES
100
AcDbCircle
 62
3
  6
CONTINUOUS
 10
170.6599961816
 20
59.5219971716
 40
5.5
100
AcDbArc
 50
270.0
 51
90.0
  0
ARC
  5
22E
100
AcDbEntity
  8
AXES
100
AcDbCircle
 62
3
  6
CONTINUOUS
 10
384.1599961816
 20
59.5219971716
 40
5.5
100
AcDbArc
 50
90.0
 51
270.0
  0
ARC
  5
22F
100
AcDbEntity
  8
AXES
100
AcDbCircle
 62
3
  6
CONTINUOUS
 10
388.1599961816
 20
59.5219971716
 40
5.5
100
AcDbArc
 50
270.0
 51
90.0
  0
ARC
  5
230
100
AcDbEntity
  8
0
100
AcDbCircle
 62
3
  6
CONTINUOUS
 10
369.5389039034
 20
218.9136455239
 40
2.0
100
AcDbArc
 50
341.3083445178
 51
11.3694836242
  0
ARC
  5
231
100
AcDbEntity
  8
AXES
100
AcDbCircle
 62
3
  6
CONTINUOUS
 10
369.5389039034
 20
218.9136455239
 40
2.0
100
AcDbArc
 50
315.7039758981
 51
341.3083445178
  0
ARC
  5
232
100
AcDbEntity
  8
AXES
100
AcDbCircle
 62
3
  6
CONTINUOUS
 10
424.8153233633
 20
110.6872520989
 40
2.0
100
AcDbArc
 50
62.056359159
 51
78.8146806651
  0
ARC
  5
233
100
AcDbEntity
  8
0
100
AcDbCircle
 62
3
  6
CONTINUOUS
 10
424.8153233633
 20
110.6872520989
 40
2.0
100
AcDbArc
 50
25.3992910403
 51
62.056359159
  0
ARC
  5
234
100
AcDbEntity
  8
0
100
AcDbCircle
 62
3
  6
CONTINUOUS
 10
-69.8400038184
 20
260.2706522021
 40
1.0
100
AcDbArc
 50
97.9186016378
 51
180.0
  0
ARC
  5
235
100
AcDbEntity
  8
0
100
AcDbCircle
 62
3
  6
CONTINUOUS
 10
-62.3823640042
 20
269.2152295496
 40
1.0
100
AcDbArc
 50
90.0
 51
175.1452475644
  0
ARC
  5
236
100
AcDbEntity
  8
0
100
AcDbCircle
 62
3
  6
CONTINUOUS
 10
356.1607872892
 20
269.2152295496
 40
1.0
100
AcDbArc
 50
16.1390777082
 51
90.0
  0
ARC
  5
237
100
AcDbEntity
  8
AXES
100
AcDbCircle
 62
3
  6
CONTINUOUS
 10
370.5556008754
 20
215.6598941546
 40
1.0
100
AcDbArc
 50
135.7039758981
 51
332.1691663587
  0
ARC
  5
238
100
AcDbEntity
  8
AXES
100
AcDbCircle
 62
3
  6
CONTINUOUS
 10
423.5962995854
 20
113.9863894605
 40
1.0
100
AcDbArc
 50
57.7703437617
 51
258.8146806651
  0
ARC
  5
239
100
AcDbEntity
  8
0
100
AcDbCircle
 62
3
  6
CONTINUOUS
 10
395.6183347484
 20
263.1283388674
 40
1.0
100
AcDbArc
 50
27.55
 51
154.4905979205
  0
ARC
  5
23A
100
AcDbEntity
  8
0
100
AcDbCircle
 62
3
  6
CONTINUOUS
 10
473.8352728859
 20
113.1946008077
 40
1.0
100
AcDbArc
 50
297.55
 51
27.55
  0
ARC
  5
23B
100
AcDbEntity
  8
0
100
AcDbCircle
 62
3
  6
CONTINUOUS
 10
448.9776791889
 20
100.2269732837
 40
1.0
100
AcDbArc
 50
237.504628274
 51
297.55
  0
ARC
  5
23C
100
AcDbEntity
  8
0
100
AcDbCircle
 62
3
  6
CONTINUOUS
 10
435.3355912161
 20
30.6246053991
 40
1.0
100
AcDbArc
 50
270.0
 51
360.0
  0
ARC
  5
23D
100
AcDbEntity
  8
0
100
AcDbCircle
 62
3
  6
CONTINUOUS
 10
-69.8400038184
 20
30.6246053991
 40
1.0
100
AcDbArc
 50
180.0
 51
270.0
  0
ELLIPSE
  5
23E
100
AcDbEntity
  8
0
100
AcDbEllipse
 62
3
  6
CONTINUOUS
 10
-70.8400038184
 20
270.2152295496
 30
0.0
 11
0.0
 21
9.0138781887
 31
0.0
 40
0.8320502943
 41
-3.0263733732
 42
-1.6725228619
  0
ENDSEC
  0
SECTION
  2
OBJECTS
  0
DICTIONARY
  5
C
100
AcDbDictionary
280
0
281
1
  3
ACAD_GROUP
350
D
  3
ACAD_MLINESTYLE
350
17
  3
ACAD_LAYOUT
350
1A
  3
ACAD_PLOTSETTINGS
350
19
  3
ACAD_PLOTSTYLENAME
350
E
  0
DICTIONARY
  5
D
102
{ACAD_REACTORS
330
C
102
}
100
AcDbDictionary
280
0
281
1
  0
ACDBDICTIONARYWDFLT
  5
E
102
{ACAD_REACTORS
330
C
102
}
100
AcDbDictionary
281
1
  3
Normal
350
F
100
AcDbDictionaryWithDefault
340
F
  0
DICTIONARY
  5
17
102
{ACAD_REACTORS
330
C
102
}
100
AcDbDictionary
280
0
281
1
  3
Standard
350
18
  0
DICTIONARY
  5
19
102
{ACAD_REACTORS
330
C
102
}
100
AcDbDictionary
281
1
  0
DICTIONARY
  5
1A
102
{ACAD_REACTORS
330
C
102
}
100
AcDbDictionary
281
1
  3
Model
350
23F
  3
Layout1
350
240
  0
ACDBPLACEHOLDER
  5
F
102
{ACAD_REACTORS
330
E
102
}
  0
MLINESTYLE
  5
18
102
{ACAD_REACTORS
330
17
102
}
100
AcDbMlineStyle
  2
STANDARD
 70
0
  3

 62
256
 51
90.0
 52
90.0
 71
2
 49
0.5
 62
256
  6
BYLAYER
 49
-0.5
 62
256
  6
BYLAYER
  0
LAYOUT
  5
23F
102
{ACAD_REACTORS
330
1A
102
}
100
AcDbPlotSettings
  1

  2
none_device
  4
ISO_A3_(420.00_x_297.00_MM)
  6

 40
0.0
 41
0.0
 42
0.0
 43
0.0
 44
420.0
 45
297.0
 46
0.0
 47
0.0
 48
0.0
 49
0.0
140
0.0
141
0.0
142
1.0
143
1.0
 70
1024
 72
1
 73
0
 74
0
  7

 75
0
147
1.0
148
0.0
149
0.0
100
AcDbLayout
  1
Model
 70
0
 71
0
 10
0.0
 20
0.0
 11
420.0
 21
297.0
 12
0.0
 22
0.0
 32
0.0
 14
0.0
 24
0.0
 34
0.0
 15
0.0
 25
0.0
 35
0.0
146
0.0
 13
0.0
 23
0.0
 33
0.0
 16
1.0
 26
0.0
 36
0.0
 17
0.0
 27
1.0
 37
0.0
 76
0
330
209
345
0
346
0
  0
LAYOUT
  5
240
102
{ACAD_REACTORS
330
1A
102
}
100
AcDbPlotSettings
  1

  2
none_device
  4
ISO_A3_(420.00_x_297.00_MM)
  6

 40
0.0
 41
0.0
 42
0.0
 43
0.0
 44
420.0
 45
297.0
 46
0.0
 47
0.0
 48
0.0
 49
0.0
140
0.0
141
0.0
142
1.0
143
1.0
 70
0
 72
1
 73
0
 74
0
  7

 75
0
147
1.0
148
0.0
149
0.0
100
AcDbLayout
  1
Layout1
 70
0
 71
1
 10
0.0
 20
0.0
 11
420.0
 21
297.0
 12
0.0
 22
0.0
 32
0.0
 14
0.0
 24
0.0
 34
0.0
 15
0.0
 25
0.0
 35
0.0
146
0.0
 13
0.0
 23
0.0
 33
0.0
 16
1.0
 26
0.0
 36
0.0
 17
0.0
 27
1.0
 37
0.0
 76
0
330
20A
345
0
346
0
  0
ENDSEC
  0
EOF
